<?xml version="1.0" encoding="UTF-8" standalone="no"?>
<!DOCTYPE svg PUBLIC "-//W3C//DTD SVG 1.1//EN" "http://www.w3.org/Graphics/SVG/1.1/DTD/svg11.dtd">
<svg width="100%" height="100%" viewBox="0 0 400 140" version="1.1" xmlns="http://www.w3.org/2000/svg" xmlns:xlink="http://www.w3.org/1999/xlink" xml:space="preserve" xmlns:serif="http://www.serif.com/" style="fill-rule:evenodd;clip-rule:evenodd;stroke-linejoin:round;stroke-miterlimit:2;">
    <g id="Artboard1" transform="matrix(1.01095,0,0,1.0031,-44.5611,-32.4949)">
        <rect x="44.078" y="32.394" width="395.666" height="139.567" style="fill:none;"/>
        <clipPath id="_clip1">
            <rect x="44.078" y="32.394" width="395.666" height="139.567"/>
        </clipPath>
        <g clip-path="url(#_clip1)">
            <g transform="matrix(0.991139,0,0,1,3.89666,-1.249e-16)">
                <path d="M439.744,41.002L439.744,163.354C439.744,168.105 435.853,171.962 431.06,171.962L49.226,171.962C44.432,171.962 40.541,168.105 40.541,163.354L40.541,41.002C40.541,36.251 44.432,32.394 49.226,32.394L431.06,32.394C435.853,32.394 439.744,36.251 439.744,41.002ZM61.779,155.02C65.287,155.536 68.605,155.902 71.734,156.117C74.863,156.332 77.7,156.44 80.244,156.44C93.311,156.44 102.939,153.45 109.128,147.471C115.317,141.492 118.412,132.266 118.412,119.792C118.412,110.931 116.865,104.071 113.77,99.21C110.675,94.349 105.793,91.145 99.122,89.596C103.248,88.736 106.566,86.392 109.077,82.564C111.587,78.736 112.842,74.112 112.842,68.692C112.842,54.841 103.283,47.916 84.164,47.916C80.932,47.916 77.287,48.067 73.23,48.368C69.172,48.669 65.218,49.164 61.367,49.852C61.642,57.938 61.831,67.143 61.934,77.467C62.037,87.79 62.089,98.586 62.089,109.856L62.089,121.341C62.089,125.04 62.072,128.717 62.037,132.374C62.003,136.03 61.968,139.729 61.934,143.471C61.9,147.213 61.848,151.063 61.779,155.02ZM77.975,120.308L77.975,101.726C79.557,101.554 80.88,101.425 81.946,101.339C83.012,101.253 83.992,101.21 84.886,101.21C89.081,101.21 92.365,102.07 94.738,103.791C97.11,105.512 98.297,108.006 98.297,111.275C98.297,114.458 97.179,116.91 94.944,118.631C92.709,120.351 89.425,121.211 85.093,121.211C83.786,121.211 82.445,121.125 81.07,120.953C79.694,120.781 78.663,120.566 77.975,120.308ZM77.975,83.661L77.975,67.272C78.525,67.014 79.264,66.821 80.193,66.692C81.121,66.563 82.17,66.498 83.339,66.498C86.984,66.498 89.752,67.186 91.643,68.563C93.534,69.939 94.48,71.918 94.48,74.499C94.48,77.338 93.38,79.617 91.179,81.338C88.978,83.058 86.021,83.919 82.307,83.919L80.347,83.919C79.729,83.919 78.938,83.833 77.975,83.661ZM371.455,155.02L389.61,155.02C389.267,148.826 389.06,142.675 388.991,136.567C388.923,130.459 388.888,124.308 388.888,118.114C389.92,118.287 390.865,118.416 391.725,118.502C392.585,118.588 393.599,118.631 394.768,118.631C399.376,118.631 403.571,117.985 407.353,116.695C411.136,115.405 414.385,113.318 417.102,110.437C419.818,107.555 421.933,103.812 423.446,99.21C424.959,94.608 425.715,89.037 425.715,82.499C425.715,75.445 424.821,69.66 423.033,65.143C421.245,60.627 418.821,57.1 415.761,54.562C412.7,52.024 409.107,50.282 404.981,49.336C400.854,48.389 396.419,47.916 391.674,47.916C388.373,47.916 385.02,48.067 381.616,48.368C378.212,48.669 374.825,49.035 371.455,49.465C371.592,58.928 371.713,68.348 371.816,77.725C371.919,87.102 371.971,96.995 371.971,107.404C371.971,114.716 371.936,122.437 371.868,130.567C371.799,138.697 371.661,146.848 371.455,155.02ZM389.095,95.661L389.095,72.176C391.02,71.66 392.98,71.402 394.975,71.402C396.35,71.402 397.674,71.574 398.946,71.918C400.218,72.262 401.336,72.907 402.299,73.853C403.261,74.8 404.035,76.112 404.62,77.789C405.204,79.467 405.497,81.596 405.497,84.177C405.497,86.672 405.221,88.715 404.671,90.306C404.121,91.898 403.399,93.167 402.505,94.113C401.611,95.059 400.562,95.726 399.359,96.113C398.155,96.5 396.9,96.694 395.593,96.694C394.768,96.694 393.788,96.629 392.654,96.5C391.519,96.371 390.333,96.092 389.095,95.661ZM295.222,90.371L294.191,155.02L310.696,155.02C310.489,137.471 310.386,119.878 310.386,102.242C310.386,84.607 310.489,67.014 310.696,49.465L289.858,49.465L277.583,109.985L266.648,49.465L244.572,49.465C244.71,58.326 244.813,67.122 244.882,75.854C244.951,84.585 244.985,93.382 244.985,102.242C244.985,111.103 244.951,119.9 244.882,128.631C244.813,137.363 244.71,146.159 244.572,155.02L260.871,155.02C260.734,144.869 260.545,134.46 260.304,123.792C260.063,113.125 259.908,102.544 259.84,92.048L272.322,150.504L281.915,150.504L295.222,90.371ZM313.172,155.02L330.708,155.02L333.184,133.857L349.07,133.857L351.649,155.02L369.082,155.02L353.918,49.465L328.439,49.465L313.172,155.02ZM335.969,110.759L341.127,68.176L346.285,110.759L335.969,110.759ZM129.347,118.502L121.61,118.502C121.541,121.599 121.472,124.653 121.404,127.664C121.335,130.674 121.301,133.728 121.301,136.825C121.301,139.836 121.335,142.869 121.404,145.923C121.472,148.977 121.541,152.009 121.61,155.02L153.382,155.02C153.451,152.009 153.485,148.977 153.485,145.923L153.485,127.664C153.485,124.653 153.451,121.599 153.382,118.502L145.542,118.502L145.542,108.565C145.542,101.683 145.56,95.446 145.594,89.855C145.628,84.263 145.714,78.585 145.852,72.821L153.382,72.821C153.451,70.843 153.485,68.907 153.485,67.014L153.485,55.336C153.485,53.4 153.451,51.443 153.382,49.465L121.61,49.465C121.541,51.357 121.472,53.293 121.404,55.272C121.335,57.25 121.301,59.229 121.301,61.207C121.301,63.186 121.335,65.122 121.404,67.014C121.472,68.907 121.541,70.843 121.61,72.821L129.244,72.821C129.244,76.09 129.261,79.66 129.295,83.532C129.33,87.403 129.347,92.091 129.347,97.597L129.347,118.502ZM197.843,73.337L197.843,49.465L156.89,49.465L156.89,73.337L168.753,73.337C168.821,76.348 168.856,79.66 168.856,83.273L168.856,96.049C168.856,102.759 168.838,108.888 168.804,114.437C168.77,119.986 168.735,125.147 168.701,129.922C168.667,134.696 168.615,139.127 168.546,143.213C168.477,147.299 168.409,151.235 168.34,155.02L185.67,155.02C185.67,153.472 185.653,151.988 185.619,150.568C185.584,149.149 185.567,147.299 185.567,145.02L185.567,122.115C185.567,112.996 185.601,104.501 185.67,96.629C185.739,88.758 185.842,80.994 185.98,73.337L197.843,73.337ZM240.034,155.407L240.034,142.955C240.034,139.471 240.016,136.438 239.982,133.857C239.948,131.277 239.896,128.954 239.827,126.889C239.759,124.825 239.69,122.803 239.621,120.824L218.577,120.824L218.577,106.372L236.629,106.372L236.629,87.145L218.577,87.145L218.577,72.176L239.312,72.176C239.38,70.886 239.432,69.488 239.466,67.982L239.569,63.466C239.604,61.96 239.638,60.498 239.673,59.078C239.707,57.659 239.724,56.433 239.724,55.401C239.724,53.938 239.707,52.798 239.673,51.981C239.638,51.164 239.621,50.196 239.621,49.078C236.801,49.164 233.775,49.25 230.543,49.336C227.311,49.422 224.01,49.486 220.64,49.529C217.27,49.572 213.969,49.594 210.737,49.594L201.866,49.594C201.866,51.314 201.883,54.239 201.917,58.369C201.952,62.498 201.969,67.38 201.969,73.015C201.969,78.649 201.986,84.736 202.02,91.274C202.055,97.812 202.072,104.35 202.072,110.888L202.072,137.471C202.072,141.342 202.055,144.783 202.02,147.794C201.986,150.805 201.935,153.214 201.866,155.02L211.408,155.02C215.018,155.02 218.629,155.042 222.239,155.085C225.85,155.128 229.237,155.171 232.4,155.214C235.563,155.257 238.108,155.321 240.034,155.407Z" style="fill:rgb(230,99,93);"/>
            </g>
        </g>
    </g>
</svg>
